<?xml version="1.0" encoding="UTF-8" standalone="no"?>
<!DOCTYPE svg PUBLIC "-//W3C//DTD SVG 1.1//EN" "http://www.w3.org/Graphics/SVG/1.1/DTD/svg11.dtd">
<svg width="100%" height="100%" viewBox="0 0 120 21" version="1.1" xmlns="http://www.w3.org/2000/svg" xmlns:xlink="http://www.w3.org/1999/xlink" xml:space="preserve" xmlns:serif="http://www.serif.com/" style="fill-rule:evenodd;clip-rule:evenodd;stroke-linejoin:round;stroke-miterlimit:2;">
    <g transform="matrix(1,0,0,1,-1.52357,0.316579)">
        <g transform="matrix(1,0,0,1,-11.8933,-0.132572)">
            <path d="M30.603,3.038L31.69,6.267L35.21,6.267L32.363,8.263L33.45,11.492L30.603,9.496L27.755,11.492L28.843,8.263L25.995,6.267L29.515,6.267L30.603,3.038Z" style="fill:rgb(6,182,212);"/>
        </g>
        <g transform="matrix(0.516008,0,0,0.516008,-4.61531,8.08281)">
            <path d="M30.603,3.038L31.69,6.267L35.21,6.267L32.363,8.263L33.45,11.492L30.603,9.496L27.755,11.492L28.843,8.263L25.995,6.267L29.515,6.267L30.603,3.038Z" style="fill:rgb(6,182,212);"/>
        </g>
        <g transform="matrix(0.361205,0,0,0.361205,6.46645,12.2371)">
            <path d="M30.603,3.038L31.69,6.267L35.21,6.267L32.363,8.263L33.45,11.492L30.603,9.496L27.755,11.492L28.843,8.263L25.995,6.267L29.515,6.267L30.603,3.038Z" style="fill:rgb(6,182,212);"/>
        </g>
        <g transform="matrix(0.309605,0,0,0.309605,1.53668,3.47769)">
            <path d="M30.603,3.038L31.69,6.267L35.21,6.267L32.363,8.263L33.45,11.492L30.603,9.496L27.755,11.492L28.843,8.263L25.995,6.267L29.515,6.267L30.603,3.038Z" style="fill:rgb(6,182,212);"/>
        </g>
    </g>
    <g transform="matrix(1,0,0,1,-6.53273,1.54727)">
        <g transform="matrix(20,0,0,20,37.0782,14.0265)">
            <path d="M0.325,0.008C0.219,0.008 0.146,-0.016 0.106,-0.063C0.065,-0.11 0.045,-0.194 0.045,-0.315C0.045,-0.428 0.067,-0.51 0.111,-0.561C0.155,-0.612 0.226,-0.637 0.325,-0.637C0.431,-0.637 0.504,-0.614 0.544,-0.567C0.584,-0.52 0.604,-0.436 0.604,-0.315C0.604,-0.234 0.593,-0.169 0.572,-0.121C0.55,-0.073 0.516,-0.039 0.471,-0.018L0.585,0.128L0.484,0.128L0.39,0.004C0.381,0.005 0.371,0.006 0.361,0.007C0.35,0.008 0.338,0.008 0.325,0.008ZM0.161,-0.134C0.174,-0.111 0.192,-0.095 0.217,-0.086C0.242,-0.077 0.278,-0.072 0.325,-0.072C0.399,-0.072 0.45,-0.09 0.477,-0.126C0.504,-0.161 0.518,-0.224 0.518,-0.315C0.518,-0.36 0.516,-0.397 0.511,-0.427C0.506,-0.456 0.499,-0.479 0.489,-0.497C0.476,-0.52 0.458,-0.536 0.434,-0.546C0.409,-0.555 0.373,-0.56 0.325,-0.56C0.25,-0.56 0.199,-0.542 0.172,-0.506C0.145,-0.47 0.131,-0.406 0.131,-0.315C0.131,-0.27 0.133,-0.233 0.138,-0.204C0.143,-0.175 0.15,-0.151 0.161,-0.134Z" style="fill-rule:nonzero;"/>
        </g>
        <g transform="matrix(20,0,0,20,50.0582,14.0265)">
            <path d="M0.226,0.008C0.171,0.008 0.13,-0.006 0.103,-0.033C0.076,-0.06 0.062,-0.101 0.062,-0.156L0.062,-0.494L0.144,-0.494L0.144,-0.166C0.144,-0.132 0.153,-0.107 0.17,-0.092C0.187,-0.077 0.215,-0.069 0.252,-0.069C0.275,-0.069 0.298,-0.072 0.321,-0.078C0.343,-0.083 0.367,-0.092 0.39,-0.104L0.39,-0.494L0.472,-0.494L0.472,-0L0.397,-0L0.393,-0.041L0.391,-0.041C0.356,-0.023 0.326,-0.01 0.301,-0.003C0.276,0.004 0.251,0.008 0.226,0.008Z" style="fill-rule:nonzero;"/>
        </g>
        <g transform="matrix(20,0,0,20,60.8182,14.0265)">
            <path d="M0.437,-0.096L0.437,-0.027C0.42,-0.018 0.394,-0.01 0.361,-0.003C0.327,0.005 0.293,0.008 0.258,0.008C0.181,0.008 0.125,-0.012 0.092,-0.052C0.059,-0.092 0.042,-0.158 0.042,-0.25C0.042,-0.339 0.059,-0.403 0.094,-0.444C0.129,-0.484 0.184,-0.504 0.26,-0.504C0.331,-0.504 0.381,-0.488 0.412,-0.457C0.443,-0.425 0.458,-0.372 0.458,-0.298C0.458,-0.285 0.458,-0.272 0.457,-0.261C0.456,-0.25 0.455,-0.236 0.453,-0.22L0.125,-0.22C0.126,-0.165 0.137,-0.126 0.159,-0.103C0.18,-0.08 0.218,-0.068 0.271,-0.068C0.3,-0.068 0.33,-0.071 0.361,-0.076C0.392,-0.081 0.418,-0.088 0.437,-0.096ZM0.383,-0.309C0.382,-0.353 0.373,-0.384 0.354,-0.403C0.335,-0.421 0.304,-0.43 0.26,-0.43C0.211,-0.43 0.176,-0.42 0.156,-0.399C0.135,-0.378 0.125,-0.341 0.125,-0.288L0.382,-0.288L0.383,-0.309Z" style="fill-rule:nonzero;"/>
        </g>
        <g transform="matrix(20,0,0,20,70.7782,14.0265)">
            <path d="M0.226,0.008C0.171,0.008 0.13,-0.006 0.103,-0.033C0.076,-0.06 0.062,-0.101 0.062,-0.156L0.062,-0.494L0.144,-0.494L0.144,-0.166C0.144,-0.132 0.153,-0.107 0.17,-0.092C0.187,-0.077 0.215,-0.069 0.252,-0.069C0.275,-0.069 0.298,-0.072 0.321,-0.078C0.343,-0.083 0.367,-0.092 0.39,-0.104L0.39,-0.494L0.472,-0.494L0.472,-0L0.397,-0L0.393,-0.041L0.391,-0.041C0.356,-0.023 0.326,-0.01 0.301,-0.003C0.276,0.004 0.251,0.008 0.226,0.008Z" style="fill-rule:nonzero;"/>
        </g>
        <g transform="matrix(20,0,0,20,81.5382,14.0265)">
            <path d="M0.31,-0.504C0.377,-0.504 0.426,-0.484 0.455,-0.445C0.484,-0.405 0.498,-0.34 0.498,-0.25C0.498,-0.158 0.48,-0.092 0.444,-0.052C0.408,-0.012 0.348,0.008 0.263,0.008C0.225,0.008 0.189,0.006 0.156,0.002C0.123,-0.003 0.092,-0.009 0.065,-0.018L0.065,-0.665L0.147,-0.665L0.147,-0.46C0.17,-0.474 0.196,-0.485 0.224,-0.493C0.252,-0.5 0.281,-0.504 0.31,-0.504ZM0.416,-0.25C0.416,-0.317 0.407,-0.364 0.388,-0.391C0.369,-0.417 0.333,-0.43 0.281,-0.43C0.257,-0.43 0.233,-0.427 0.21,-0.421C0.187,-0.414 0.166,-0.405 0.147,-0.394L0.147,-0.081C0.162,-0.077 0.178,-0.074 0.197,-0.072C0.216,-0.069 0.236,-0.068 0.258,-0.068C0.32,-0.068 0.362,-0.081 0.384,-0.107C0.405,-0.133 0.416,-0.181 0.416,-0.25Z" style="fill-rule:nonzero;"/>
        </g>
        <g transform="matrix(20,0,0,20,92.3382,14.0265)">
            <path d="M0.151,-0.58L0.063,-0.58L0.063,-0.665L0.151,-0.665L0.151,-0.58ZM0.148,-0L0.066,-0L0.066,-0.494L0.148,-0.494L0.148,-0Z" style="fill-rule:nonzero;"/>
        </g>
        <g transform="matrix(20,0,0,20,96.6182,14.0265)">
            <path d="M0.5,-0.248C0.5,-0.155 0.483,-0.089 0.449,-0.05C0.414,-0.011 0.355,0.008 0.272,0.008C0.186,0.008 0.126,-0.011 0.093,-0.048C0.06,-0.085 0.043,-0.152 0.043,-0.248C0.043,-0.342 0.06,-0.408 0.095,-0.447C0.129,-0.485 0.188,-0.504 0.272,-0.504C0.358,-0.504 0.418,-0.485 0.451,-0.448C0.484,-0.411 0.5,-0.344 0.5,-0.248ZM0.125,-0.249C0.125,-0.176 0.135,-0.127 0.154,-0.104C0.173,-0.08 0.213,-0.068 0.272,-0.068C0.329,-0.068 0.368,-0.081 0.388,-0.106C0.408,-0.131 0.418,-0.178 0.418,-0.249C0.418,-0.322 0.409,-0.371 0.39,-0.395C0.371,-0.418 0.331,-0.43 0.272,-0.43C0.214,-0.43 0.175,-0.418 0.155,-0.393C0.135,-0.368 0.125,-0.32 0.125,-0.249Z" style="fill-rule:nonzero;"/>
        </g>
        <g transform="matrix(20,0,0,20,107.478,14.0265)">
            <path d="M0.226,0.008C0.171,0.008 0.13,-0.006 0.103,-0.033C0.076,-0.06 0.062,-0.101 0.062,-0.156L0.062,-0.494L0.144,-0.494L0.144,-0.166C0.144,-0.132 0.153,-0.107 0.17,-0.092C0.187,-0.077 0.215,-0.069 0.252,-0.069C0.275,-0.069 0.298,-0.072 0.321,-0.078C0.343,-0.083 0.367,-0.092 0.39,-0.104L0.39,-0.494L0.472,-0.494L0.472,-0L0.397,-0L0.393,-0.041L0.391,-0.041C0.356,-0.023 0.326,-0.01 0.301,-0.003C0.276,0.004 0.251,0.008 0.226,0.008Z" style="fill-rule:nonzero;"/>
        </g>
        <g transform="matrix(20,0,0,20,118.238,14.0265)">
            <path d="M0.236,-0.43C0.193,-0.43 0.164,-0.425 0.148,-0.415C0.131,-0.405 0.123,-0.385 0.123,-0.354C0.123,-0.338 0.127,-0.326 0.135,-0.318C0.142,-0.309 0.154,-0.304 0.171,-0.301L0.298,-0.282C0.338,-0.276 0.366,-0.264 0.382,-0.245C0.398,-0.226 0.406,-0.196 0.406,-0.155C0.406,-0.098 0.392,-0.056 0.365,-0.031C0.338,-0.005 0.292,0.008 0.229,0.008C0.191,0.008 0.156,0.006 0.123,0.002C0.09,-0.002 0.063,-0.007 0.042,-0.014L0.042,-0.091C0.063,-0.084 0.089,-0.079 0.121,-0.075C0.152,-0.07 0.183,-0.068 0.216,-0.068C0.257,-0.068 0.286,-0.074 0.301,-0.086C0.316,-0.098 0.324,-0.119 0.324,-0.15C0.324,-0.169 0.32,-0.184 0.311,-0.193C0.302,-0.202 0.287,-0.208 0.264,-0.211L0.137,-0.23C0.105,-0.235 0.081,-0.247 0.066,-0.267C0.05,-0.287 0.042,-0.316 0.041,-0.354C0.041,-0.406 0.057,-0.444 0.088,-0.468C0.119,-0.492 0.166,-0.504 0.231,-0.504C0.258,-0.504 0.282,-0.503 0.304,-0.502C0.325,-0.501 0.348,-0.498 0.372,-0.494L0.372,-0.421C0.355,-0.424 0.334,-0.426 0.311,-0.428C0.288,-0.429 0.263,-0.43 0.236,-0.43Z" style="fill-rule:nonzero;"/>
        </g>
    </g>
</svg>
